:FULLY-SPECIFIED
:FORCE-ALL-JOINTS-BE-3DOF
:DEGREES
781
root 1.60692 16.3824 18.642 -14.5556 74.2984 339.412
lfemur -36.0102 10.7673 -13.2682
ltibia 50.1615 0 0
lfoot -21.9983 19.5641 0
ltoes 15.0606 0 0
rfemur -15.4109 -21.8241 21.2632
rtibia 51.4802 0 0
rfoot -17.9192 -30.9735 0
rtoes -25.6628 0 0
lowerback 1.10124 4.66515 -0.606237
upperback -0.828523 6.20665 -3.68078
thorax -1.12137 3.11327 -3.55555
lowerneck -5.40863 -6.4873 -0.539484
upperneck -2.13629 -8.55741 4.87455
head 0.486674 -4.20838 1.40909
lclavicle 1.17744e-14 3.69518e-15 0
lhumerus -55.9012 -11.6153 94.8835
lradius 70.6123 0 0
lwrist 13.4768 0 0
lhand -21.7627 -4.65504 0
lfingers 7.12502 0 0
lthumb 4.63789 25.2714 0
rclavicle 1.17744e-14 3.69518e-15 0
rhumerus -31.283 48.0942 -112.989
rradius 79.9077 0 0
rwrist 5.65309 0 0
rhand -23.9013 -20.2638 0
rfingers 7.12502 0 0
rthumb 2.5727 -770.228 0
782
root 1.57696 16.4191 18.7314 -9.96061 71.1161 344.171
lfemur -35.0522 8.01146 -12.1087
ltibia 49.6851 0 0
lfoot -21.7739 18.4979 0
ltoes 13.4318 0 0
rfemur -15.2959 -20.6183 20.9436
rtibia 50.8883 0 0
rfoot -17.6621 -29.3898 0
rtoes -26.3475 0 0
lowerback 1.07752 4.64921 -0.315099
upperback -0.743932 6.18987 -3.55114
thorax -1.00575 3.10252 -3.57505
lowerneck -5.47451 -6.31408 -0.384417
upperneck -1.82918 -8.35334 4.60041
head 0.567268 -4.10782 1.29612
lclavicle 2.32514e-15 7.43674e-15 0
lhumerus -56.0083 -11.5915 94.9575
lradius 70.5853 0 0
lwrist 14.0953 0 0
lhand -22.2922 -4.19394 0
lfingers 7.12502 0 0
lthumb 4.12654 25.7434 0
rclavicle 2.32514e-15 7.43674e-15 0
rhumerus -31.9339 47.9814 -113.557
rradius 79.7482 0 0
rwrist 5.36729 0 0
rhand -24.0742 -20.4429 0
rfingers 7.12502 0 0
rthumb 2.40572 -770.409 0
783
root 1.55163 16.4533 18.8197 -6.5203 67.9738 347.759
lfemur -34.1977 5.302 -11.0271
ltibia 49.3058 0 0
lfoot -21.6363 17.3407 0
ltoes 12.044 0 0
rfemur -15.1682 -19.487 20.6565
rtibia 50.2942 0 0
rfoot -17.4944 -27.8207 0
rtoes -26.9217 0 0
lowerback 1.04282 4.63217 -0.0152761
upperback -0.66616 6.17179 -3.41971
thorax -0.890423 3.09132 -3.59698
lowerneck -5.54384 -6.14348 -0.23159
upperneck -1.51374 -8.15231 4.33344
head 0.652097 -4.00842 1.18574
lclavicle -3.7998e-15 1.10949e-14 0
lhumerus -56.1235 -11.5626 95.0227
lradius 70.5666 0 0
lwrist 14.6856 0 0
lhand -22.7726 -3.74481 0
lfingers 7.12502 0 0
lthumb 3.66265 26.2018 0
rclavicle -3.7998e-15 1.10949e-14 0
rhumerus -32.5784 47.8784 -114.095
rradius 79.5669 0 0
rwrist 5.09369 0 0
rhand -24.1851 -20.6199 0
rfingers 7.12502 0 0
rthumb 2.29855 -770.587 0
784
root 1.53176 16.4837 18.904 -4.12807 64.9914 350.276
lfemur -33.4875 2.74145 -10.0652
ltibia 49.0444 0 0
lfoot -21.5851 16.1123 0
ltoes 10.9622 0 0
rfemur -15.0346 -18.4728 20.4133
rtibia 49.7169 0 0
rfoot -17.4297 -26.3259 0
rtoes -27.3549 0 0
lowerback 0.997687 4.61455 0.28303
upperback -0.599002 6.15288 -3.29164
thorax -0.78009 3.07999 -3.62131
lowerneck -5.6135 -5.98189 -0.0861805
upperneck -1.20597 -7.96162 4.08482
head 0.736661 -3.91384 1.08248
lclavicle -7.19334e-15 1.45026e-14 0
lhumerus -56.2433 -11.5287 95.0749
lradius 70.5587 0 0
lwrist 15.2231 0 0
lhand -23.1756 -3.32523 0
lfingers 7.12502 0 0
lthumb 3.27354 26.6287 0
rclavicle -7.19334e-15 1.45026e-14 0
rhumerus -33.1923 47.7825 -114.583
rradius 79.3705 0 0
rwrist 4.84519 0 0
rhand -24.2326 -20.7892 0
rfingers 7.12502 0 0
rthumb 2.25272 -770.757 0
785
root 1.51824 16.5089 18.9817 -2.67731 62.2886 351.818
lfemur -32.9625 0.432324 -9.26479
ltibia 48.9216 0 0
lfoot -21.62 14.8327 0
ltoes 10.2513 0 0
rfemur -14.9017 -17.6181 20.2256
rtibia 49.1753 0 0
rfoot -17.4814 -24.9648 0
rtoes -27.6164 0 0
lowerback 0.942677 4.59689 0.569618
upperback -0.546254 6.13361 -3.1721
thorax -0.67945 3.06884 -3.64802
lowerneck -5.68039 -5.8357 0.0466325
upperneck -0.921863 -7.78855 3.86576
head 0.816457 -3.82773 0.990877
lclavicle -8.44835e-15 1.74931e-14 0
lhumerus -56.3639 -11.4893 95.1099
lradius 70.5643 0 0
lwrist 15.6832 0 0
lhand -23.4728 -2.9528 0
lfingers 7.12502 0 0
lthumb 2.98652 27.006 0
rclavicle -8.44835e-15 1.74931e-14 0
rhumerus -33.7516 47.6912 -115.002
rradius 79.1657 0 0
rwrist 4.63468 0 0
rhand -24.2149 -20.945 0
rfingers 7.12502 0 0
rthumb 2.26979 -770.913 0
786
root 1.51386 16.5228 19.0647 -1.86399 59.7597 352.455
lfemur -33.192 -1.24067 -8.76845
ltibia 49.2587 0 0
lfoot -21.6333 12.9434 0
ltoes 10.1534 0 0
rfemur -15.0037 -16.8748 20.2045
rtibia 48.6851 0 0
rfoot -17.8526 -23.8038 0
rtoes -27.4132 0 0
lowerback 0.718975 4.58516 0.820458
upperback -0.571483 6.11955 -3.05645
thorax -0.567923 3.06102 -3.64868
lowerneck -5.72709 -5.70429 0.154722
upperneck -0.764542 -7.62628 3.70989
head 0.85946 -3.74746 0.926037
lclavicle 9.65786e-15 1.36032e-14 0
lhumerus -56.4424 -11.3443 95.0453
lradius 70.5453 0 0
lwrist 16.0311 0 0
lhand -23.3128 -2.68538 0
lfingers 7.12502 0 0
lthumb 3.14097 27.2708 0
rclavicle 9.65786e-15 1.36032e-14 0
rhumerus -34.2141 47.5102 -115.264
rradius 78.8858 0 0
rwrist 4.52292 0 0
rhand -24.0911 -21.1658 0
rfingers 7.12502 0 0
rthumb 2.38934 -771.132 0
787
root 1.5095 16.5353 19.1573 -0.959431 57.0287 353.075
lfemur -33.6612 -2.7669 -8.302
ltibia 49.7145 0 0
lfoot -21.5829 10.7937 0
ltoes 10.0726 0 0
rfemur -15.2157 -16.0268 20.2185
rtibia 48.1802 0 0
rfoot -18.2975 -22.6279 0
rtoes -27.0968 0 0
lowerback 0.417689 4.57992 1.05798
upperback -0.623809 6.11269 -2.93381
thorax -0.442557 3.05686 -3.6294
lowerneck -5.76733 -5.56374 0.259838
upperneck -0.644928 -7.45009 3.56191
head 0.890083 -3.66066 0.865296
lclavicle 2.0307e-14 9.15686e-15 0
lhumerus -56.4975 -11.1462 94.9393
lradius 70.49 0 0
lwrist 16.4276 0 0
lhand -22.9978 -2.40137 0
lfingers 7.12502 0 0
lthumb 3.44521 27.5491 0
rclavicle 2.0307e-14 9.15686e-15 0
rhumerus -34.6678 47.2929 -115.503
rradius 78.5559 0 0
rwrist 4.41001 0 0
rhand -23.9493 -21.4535 0
rfingers 7.12502 0 0
rthumb 2.52631 -771.418 0
788
root 1.50526 16.5464 19.2563 -0.00192413 54.1865 353.666
lfemur -34.3224 -4.11104 -7.87897
ltibia 50.2573 0 0
lfoot -21.4766 8.48225 0
ltoes 10.0048 0 0
rfemur -15.5101 -15.1036 20.2592
rtibia 47.6725 0 0
rfoot -18.7926 -21.4729 0
rtoes -26.688 0 0
lowerback 0.063114 4.58111 1.27645
upperback -0.696733 6.11318 -2.80854
thorax -0.310353 3.05645 -3.59327
lowerneck -5.80061 -5.41833 0.359341
upperneck -0.562651 -7.26561 3.42533
head 0.908665 -3.57004 0.810001
lclavicle 2.20179e-14 4.7662e-15 0
lhumerus -56.5292 -10.9064 94.7986
lradius 70.401 0 0
lwrist 16.8665 0 0
lhand -22.5499 -2.10219 0
lfingers 7.12502 0 0
lthumb 3.87767 27.8396 0
rclavicle 2.20179e-14 4.7662e-15 0
rhumerus -35.098 47.0508 -115.713
rradius 78.1882 0 0
rwrist 4.29609 0 0
rhand -23.7964 -21.7983 0
rfingers 7.12502 0 0
rthumb 2.67402 -771.761 0
789
root 1.50125 16.556 19.3581 0.970252 51.3237 354.215
lfemur -35.1283 -5.2378 -7.51288
ltibia 50.8557 0 0
lfoot -21.3219 6.10774 0
ltoes 9.94585 0 0
rfemur -15.8598 -14.1346 20.3179
rtibia 47.1739 0 0
rfoot -19.3143 -20.374 0
rtoes -26.2076 0 0
lowerback -0.320456 4.5887 1.47016
upperback -0.783759 6.12118 -2.68499
thorax -0.17831 3.05985 -3.54341
lowerneck -5.82644 -5.27235 0.450594
upperneck -0.517343 -7.07843 3.3037
head 0.915545 -3.47833 0.761497
lclavicle 1.3309e-14 1.04319e-15 0
lhumerus -56.5379 -10.6361 94.6299
lradius 70.281 0 0
lwrist 17.3417 0 0
lhand -21.9916 -1.78926 0
lfingers 7.12502 0 0
lthumb 4.41676 28.1412 0
rclavicle 1.3309e-14 1.04319e-15 0
rhumerus -35.4904 46.7954 -115.892
rradius 77.795 0 0
rwrist 4.1813 0 0
rhand -23.6392 -22.1908 0
rfingers 7.12502 0 0
rthumb 2.82579 -772.152 0
